<?xml version="1.0" encoding="UTF-8"?>
<svg width="24px" height="24px" viewBox="0 0 24 24" version="1.1" xmlns="http://www.w3.org/2000/svg" xmlns:xlink="http://www.w3.org/1999/xlink">
    <!-- Generator: Sketch 46.2 (44496) - http://www.bohemiancoding.com/sketch -->
    <title>settings</title>
    <desc>Created with Sketch.</desc>
    <defs></defs>
    <g id="Screens" stroke="none" stroke-width="1" fill="none" fill-rule="evenodd">
        <g id="admin-products" transform="translate(-1250.000000, -32.000000)" fill="#FFFFFF">
            <path d="M1262.00069,41.75375 C1260.75831,41.75375 1259.75069,42.7625 1259.75069,44.00375 C1259.75069,45.245 1260.75831,46.25375 1262.00069,46.25375 C1263.24344,46.25375 1264.25069,45.245 1264.25069,44.00375 C1264.25069,42.7625 1263.24344,41.75375 1262.00069,41.75375 L1262.00069,41.75375 Z M1262.00069,48.50375 C1259.51556,48.50375 1257.50069,46.49 1257.50069,44.00375 C1257.50069,41.5175 1259.51556,39.50375 1262.00069,39.50375 C1264.48619,39.50375 1266.50069,41.5175 1266.50069,44.00375 C1266.50069,46.49 1264.48619,48.50375 1262.00069,48.50375 L1262.00069,48.50375 Z M1262.00069,37.25375 C1258.27281,37.25375 1255.25069,40.27625 1255.25069,44.00375 C1255.25069,47.73125 1258.27281,50.75375 1262.00069,50.75375 C1265.72856,50.75375 1268.75069,47.73125 1268.75069,44.00375 C1268.75069,40.27625 1265.72856,37.25375 1262.00069,37.25375 L1262.00069,37.25375 Z M1270.81581,46.415 C1270.61219,47.14625 1270.31631,47.84 1269.94694,48.485 C1270.00169,48.5525 1271.94419,50.99375 1270.75019,52.19 L1270.15506,52.78625 C1269.26069,53.67875 1267.02006,52.27625 1266.48531,51.92 C1265.80319,52.3025 1265.06744,52.6025 1264.29119,52.80125 L1264.44831,52.805 C1264.44831,52.805 1264.02381,56 1262.31156,56 L1261.72394,56 C1260.41894,56 1259.69144,53.2625 1259.56581,52.745 C1258.79819,52.53125 1258.07181,52.21625 1257.40094,51.81875 L1257.51869,51.94625 C1257.51869,51.94625 1254.98931,53.93375 1253.77844,52.7225 L1253.24331,52.27625 C1252.32306,51.3575 1253.80581,48.92 1254.10244,48.455 C1253.74469,47.825 1253.45706,47.14625 1253.25719,46.43375 C1252.75431,46.31 1249.99844,45.5825 1249.99844,44.27375 L1249.99844,43.685 C1249.99844,42.17375 1252.62644,41.6675 1253.24181,41.57 C1253.43869,40.85 1253.72481,40.1675 1254.08181,39.53 C1253.79981,39.1025 1252.25744,36.65375 1253.18556,35.72375 L1253.75106,35.25125 C1254.81606,34.18625 1256.99894,35.69375 1257.50819,36.0725 C1258.15356,35.70125 1258.84694,35.405 1259.57894,35.2025 C1259.74056,34.56125 1260.46394,32 1261.72394,32 L1262.31156,32 C1263.77969,32 1264.29981,34.475 1264.41869,35.18375 C1265.16119,35.38625 1265.86431,35.67875 1266.51869,36.05 C1267.07219,35.69 1269.35069,34.295 1270.24281,35.1875 L1270.77794,35.75375 C1271.82156,36.79625 1270.37406,38.91125 1269.95331,39.4775 C1270.32231,40.1225 1270.61706,40.81625 1270.81956,41.55125 C1271.00631,41.5775 1273.99656,42.0275 1273.99656,43.685 L1273.99656,44.27375 C1273.99656,45.5225 1271.48331,46.2425 1270.81581,46.415 L1270.81581,46.415 Z" id="settings"></path>
        </g>
    </g>
</svg>