<?xml version="1.0" encoding="UTF-8"?>
<svg width="14px" height="14px" viewBox="0 0 14 14" version="1.1" xmlns="http://www.w3.org/2000/svg" xmlns:xlink="http://www.w3.org/1999/xlink">
    <!-- Generator: Sketch 46.2 (44496) - http://www.bohemiancoding.com/sketch -->
    <title>search</title>
    <desc>Created with Sketch.</desc>
    <defs></defs>
    <g id="Symbols" stroke="none" stroke-width="1" fill="none" fill-rule="evenodd">
        <g id="form/search" transform="translate(-14.000000, -16.000000)" fill="#8288A0">
            <g id="search">
                <path d="M24.0057176,24.8050314 L23.3733562,24.8050314 L23.1492281,24.5889079 C23.9336764,23.6763865 24.4059463,22.4917095 24.4059463,21.2029731 C24.4059463,18.329331 22.0766152,16 19.2029731,16 C16.329331,16 14,18.329331 14,21.2029731 C14,24.0766152 16.329331,26.4059463 19.2029731,26.4059463 C20.4917095,26.4059463 21.6763865,25.9336764 22.5889079,25.1492281 L22.8050314,25.3733562 L22.8050314,26.0057176 L26.8073185,30 L28,28.8073185 L24.0057176,24.8050314 L24.0057176,24.8050314 Z M19.2029731,24.8050314 C17.2098342,24.8050314 15.6009148,23.1961121 15.6009148,21.2029731 C15.6009148,19.2098342 17.2098342,17.6009148 19.2029731,17.6009148 C21.1961121,17.6009148 22.8050314,19.2098342 22.8050314,21.2029731 C22.8050314,23.1961121 21.1961121,24.8050314 19.2029731,24.8050314 L19.2029731,24.8050314 Z"></path>
            </g>
        </g>
    </g>
</svg>