<?xml version="1.0" encoding="UTF-8"?>
<svg width="63px" height="14px" viewBox="0 0 63 14" version="1.1" xmlns="http://www.w3.org/2000/svg" xmlns:xlink="http://www.w3.org/1999/xlink">
    <!-- Generator: Sketch 46.2 (44496) - http://www.bohemiancoding.com/sketch -->
    <title>sibi-logo</title>
    <desc>Created with Sketch.</desc>
    <defs></defs>
    <g id="Products" stroke="none" stroke-width="1" fill="none" fill-rule="evenodd">
        <g transform="translate(-30.000000, -27.000000)" id="nav/vendor-dashboard" fill-rule="nonzero" fill="#FFFFFF">
            <g>
                <g id="sibi-logo" transform="translate(30.000000, 27.000000)">
                    <rect id="Rectangle-path" x="60.3746341" y="0.368344828" width="2.27902439" height="13.5042069"></rect>
                    <rect id="Rectangle-path" x="23.8804878" y="0.368344828" width="2.27902439" height="13.5042069"></rect>
                    <path d="M46.7741463,11.4351034 C46.4604878,11.5905517 46.1453659,11.62 45.8195122,11.6243448 L38.9995122,11.6243448 L38.9995122,8.25565517 L42.497561,8.25565517 L42.4960976,8.25758621 C43.6346341,8.25758621 44.7736585,8.26772414 45.9121951,8.25758621 C46.862439,8.24889655 47.7468293,8.96772414 47.7468293,9.94 C47.7468293,10.5902759 47.3526829,11.1483448 46.7741463,11.4351034 L46.7741463,11.4351034 Z M38.9995122,2.63151724 L42.497561,2.63151724 C42.4970732,2.632 42.4965854,2.63248276 42.4960976,2.63344828 C43.6346341,2.63344828 44.7736585,2.64358621 45.9121951,2.63344828 C46.862439,2.62475862 47.7468293,3.34310345 47.7468293,4.31586207 C47.7468293,4.96565517 47.3526829,5.5242069 46.7741463,5.81096552 C46.46,5.96641379 46.144878,5.99537931 45.8190244,6.0002069 L38.9995122,6.0002069 L38.9995122,2.63151724 Z M48.8658537,7.12793103 C49.6039024,6.41296552 50.0639024,5.41848276 50.0639024,4.31586207 C50.0639024,2.13572414 48.2112195,0.384275862 46.0292683,0.365448276 C44.4765854,0.351931034 42.9195122,0.376068966 41.364878,0.376068966 L38.9995122,0.376068966 L36.7209756,0.376068966 L36.7209756,13.8797931 L45.7946341,13.8797931 C47.8712195,13.8793103 49.7873171,12.5184138 50.0365854,10.3995862 C50.055122,10.2475172 50.0639024,10.0935172 50.0639024,9.94 C50.0639024,8.83737931 49.6039024,7.84289655 48.8658537,7.12793103 L48.8658537,7.12793103 Z" id="Shape"></path>
                    <path d="M10.3243902,6.00068966 C10.3243902,6.00068966 8.09804878,6.00068966 8.09902439,5.99875862 C6.9604878,5.99875862 5.82146341,5.98862069 4.68292683,5.99875862 C3.73317073,6.00744828 2.84878049,5.28862069 2.84878049,4.31634483 C2.84878049,3.66655172 3.24292683,3.108 3.82097561,2.82124138 C4.13512195,2.66531034 4.4502439,2.63634483 4.77609756,2.63151724 L13.475122,2.63151724 L13.475122,0.376551724 L12.262439,0.376551724 L9.49365854,0.376551724 L6.47170732,0.376551724 C5.21707317,0.376551724 3.89170732,0.23462069 2.73268293,0.805724138 C1.82585366,1.25275862 1.10926829,2.04255172 0.764878049,2.98682759 C0.609756098,3.41262069 0.531219512,3.864 0.531219512,4.31634483 C0.531219512,5.34655172 0.950243902,6.34827586 1.68536585,7.07724138 C1.99365854,7.38331034 2.35853659,7.62662069 2.75317073,7.81055172 C3.32390244,8.07655172 3.91073171,8.25227586 4.54487805,8.25758621 C5.21121951,8.26337931 5.87463415,8.25275862 6.5404878,8.25806897 C7.6795122,8.25806897 8.81853659,8.26868966 9.95707317,8.25806897 C10.9063415,8.24937931 11.7912195,8.9682069 11.7912195,9.94048276 C11.7912195,10.5907586 11.3965854,11.1493103 10.8185366,11.4355862 C10.5043902,11.5915172 10.1887805,11.6204828 9.86243902,11.6248276 L0.433170732,11.6248276 L0.433170732,13.8802759 L5.60585366,13.8802759 C6.39902439,13.8797931 7.19219512,13.8797931 7.98487805,13.8793103 C8.54439024,13.8793103 9.10390244,13.8793103 9.66341463,13.8788276 C10.3302439,13.8778621 10.997561,13.844069 11.6229268,13.5930345 C12.1082927,13.398 12.5531707,13.1068966 12.9258537,12.7424138 C13.6780488,12.0062069 14.1082927,10.9875862 14.1082927,9.94048276 C14.1082927,7.83131034 12.4292683,6.12427586 10.3243902,6.00068966" id="Shape"></path>
                </g>
            </g>
        </g>
    </g>
</svg>